<?xml version="1.0" encoding="UTF-8"?>
<svg id="Layer_1" data-name="Layer 1" xmlns="http://www.w3.org/2000/svg" viewBox="0 0 686.96368 719.029">
  <defs>
    <style>
      .cls-1 {
        fill: #fff;
      }

      .cls-2 {
        fill: #20267d;
      }
    </style>
  </defs>
  <path class="cls-2" d="M613.90526,437.79169l67.70953-213.00355c10.90902-34.34851,4.96409-70.71691-16.30313-99.77106-21.25946-29.07798-54.11952-45.75516-90.15598-45.75516H132.78725l-20.99196-44.77549C102.41448,14.47733,82.81178.8655,60.72818.04222c-9.45273-.3524-18.58036,1.50353-27.04423,5.48101C19.54256,12.14035,8.82971,23.8745,3.52371,38.5523c-5.32041,14.68667-4.59558,30.56532,2.03651,44.70172l22.7806,48.61514c18.31858,39.05326,58.01742,64.28764,101.1387,64.28764h6.05299c-9.87664,11.7131-17.89964,25.15403-23.92382,40.10171-7.51872,18.66548-11.33073,39.34806-11.33073,61.472,0,21.84741,3.85135,42.27675,11.44655,60.72057,7.68774,18.67102,18.58291,34.98745,32.37518,48.48657,6.47969,6.35057,13.55786,12.04171,21.18797,17.0468-10.85471,8.85201-20.07191,19.7167-26.95503,32.04103-19.51222,34.97027-19.05449,76.46179,1.21747,110.97877,10.19971,17.39037,24.29233,31.29071,41.26931,40.84206-.05874,1.43414-.08811,2.86718-.08811,4.29689,0,58.93731,47.94849,106.8858,106.88525,106.8858,55.55311,0,101.34208-42.60758,106.40813-96.86453h17.274c5.06716,54.25695,50.86111,96.86453,106.41921,96.86453,58.93066,0,106.87361-47.94849,106.87361-106.8858,0-.80241-.00887-1.60482-.0266-2.40612,14.96459-11.7019,23.60383-30.21935,22.25835-50.06124-2.03172-29.96196-29.18349-54.40625-59.21426-54.40625h-.06799c-9.00082,0-13.3165-11.18828-6.54057-17.11295,14.99022-13.10698,26.54017-30.32092,32.90482-50.36495Z"/>
  <g>
    <path class="cls-1" d="M207.98911,400.18893c13.65761,5.28175,28.66548,7.92734,45.01953,7.92734,32.30688,0,61.51799-6.97877,87.64609-20.93992v-108.28601h-81.06499v34.10157h43.37453v49.95452c-6.58228,3.7906-14.11195,6.58117-22.58374,8.37648-8.4799,1.79406-17.50017,2.69234-27.07251,2.69234-10.96998,0-20.89254-1.99183-29.76367-5.98352-8.87584-3.98705-16.5038-9.46885-22.88375-16.45234-6.38465-6.9776-11.32027-15.25578-14.80734-24.8275-3.49115-9.57289-5.23493-20.04171-5.23493-31.40874,0-10.56815,1.74378-20.43932,5.23493-29.61454,3.48707-9.17058,8.42268-17.20023,14.80734-24.08023,6.37994-6.88,14.0079-12.26468,22.88375-16.15344,8.87113-3.88827,18.79369-5.83265,29.76367-5.83265,10.76875,0,20.98612,1.79469,30.66015,5.38406,9.67001,3.58945,17.89673,8.67468,24.67788,15.25585l27.81929-28.11867c-11.16933-9.96939-23.83107-16.90085-37.98984-20.78968-14.16113-3.88876-29.31342-5.8332-45.46686-5.8332-16.35404,0-31.36191,2.64559-45.01953,7.92734-13.6617,5.2864-25.4264,12.81606-35.29757,22.5843-9.87172,9.7735-17.60192,21.58904-23.18313,35.44726-5.58522,13.86341-8.37523,29.2684-8.37523,46.21656,0,16.5552,2.79001,31.60983,8.37523,45.16866,5.5812,13.56341,13.31141,25.17842,23.18313,34.84953,9.87117,9.67465,21.63587,17.15285,35.29757,22.43461Z"/>
    <polygon class="cls-1" points="562.01266 190.94536 521.33048 190.94536 461.80307 350.98182 404.07096 190.94536 360.69644 190.94536 443.85494 402.73158 476.46009 402.73158 562.01266 190.94536"/>
    <path class="cls-1" d="M235.8749,474.80345h271.58566c30.99479,0,58.12603-19.84637,67.51336-49.38374l67.69955-213.00633c6.92135-21.77482,3.15423-44.84026-10.33492-63.28186-13.48915-18.4416-34.32967-29.01813-57.17844-29.01813H129.48285c-13.7701,0-26.4441-8.05625-32.28873-20.52465l-22.78504-48.60793c-4.12399-8.7966-14.59912-12.58311-23.39405-8.46189-8.79715,4.12344-12.58533,14.59745-8.46189,23.39405l22.78504,48.60793c11.61058,24.76945,36.78899,40.77445,64.14467,40.77445h445.67726c11.50086,0,21.99205,5.32429,28.78151,14.60687,6.79057,9.28314,8.68688,20.89372,5.20348,31.85483l-67.69955,213.00633c-4.7258,14.86788-18.38341,24.85812-33.98499,24.85812H235.8749c-25.65277,0-49.35604,13.91585-61.85935,36.31575-12.37697,22.17603-12.09047,48.49156.7675,70.39162,11.75563,20.02433,31.85649,32.66396,54.62567,34.6844-4.98528,9.28183-7.8215,19.88239-7.8215,31.13547,0,36.40663,29.61883,66.02491,66.02491,66.02491s66.0238-29.61828,66.0238-66.02491c0-11.13615-2.78232-21.63046-7.67125-30.84295h113.39854c-4.889,9.21249-7.67132,19.7068-7.67132,30.84295,0,36.40663,29.61828,66.02491,66.0238,66.02491s66.02491-29.61828,66.02491-66.02491c0-11.13615-2.78232-21.63046-7.67139-30.84295h12.44818c9.71538,0,17.59098-7.8756,17.59098-17.59098s-7.8756-17.59098-17.59098-17.59098H235.8749c-12.78372,0-24.28014-6.58221-30.75207-17.60649-6.47249-11.02429-6.61657-24.27072-.3868-35.43243,6.29405-11.27698,18.22604-18.28145,31.13887-18.28145ZM318.45452,612.14874c0,17.0069-13.83605,30.84295-30.8424,30.84295s-30.84295-13.83605-30.84295-30.84295,13.83605-30.84295,30.84295-30.84295,30.8424,13.83605,30.8424,30.84295ZM548.55863,612.14874c0,17.0069-13.83605,30.84295-30.84295,30.84295-17.00579,0-30.84184-13.83605-30.84184-30.84295s13.83605-30.84295,30.84184-30.84295c17.0069,0,30.84295,13.83605,30.84295,30.84295Z"/>
  </g>
</svg>